#!OML:ASF X:\für Bonn\!DataBase\2005_08_10_Bjorn_Final\c3d\bjorn.ASF
:FULLY-SPECIFIED
:DEGREES
63
root 0.679593 19.0705 2.67779 -181.664 2.97692 179.026
lowerback -16.8402 0.432208 -0.596469
upperback 7.06141 0.737063 0.959263
thorax 17.7205 0.23819 1.70675
lowerneck 9.71214 -2.08917 2.82735
upperneck 22.2738 0.226228 3.24127
head 5.17387 1.80535 0.67046
rclavicle 1.2921e-014 5.56597e-015
rhumerus -1370.14 -1.62663 1415.88
rradius 23.6098
rwrist 30.4015
rhand -5.28109 1.67286
rfingers 7.12502
rthumb 20.5233 -27.2623
lclavicle 1.2921e-014 5.56597e-015
lhumerus -1540.19 173.213 -1579.16
lradius 21.2205
lwrist -34.1596
lhand -20.0314 1.25094
lfingers 7.12502
lthumb 6.30954 31.137
rfemur -6.51517 -9.30258 12.6958
rtibia 31.1063
rfoot -18.9401 11.9723
rtoes -15.0444
lfemur -1.12077 6.94958 -16.3651
ltibia 26.2451
lfoot -16.7751 -1.96366
ltoes -6.88666
64
root 0.692405 19.0509 2.58787 -181.846 3.03402 179.099
lowerback -17.7179 0.37282 -0.711254
upperback 6.82913 0.644381 1.04286
thorax 17.9966 0.161159 1.84952
lowerneck 10.8358 -2.38737 2.71806
upperneck 22.7737 0.110831 3.37915
head 5.16046 1.85381 0.742201
rclavicle 1.73937e-015 8.74653e-015
rhumerus -1369.93 -3.34138 1415.9
rradius 23.3462
rwrist 31.8128
rhand -4.77946 1.79117
rfingers 7.12502
rthumb 21.0053 -27.0913
lclavicle 1.73937e-015 8.74653e-015
lhumerus -1540.02 171.527 -1579.79
lradius 21.3018
lwrist -34.9392
lhand -20.268 1.51783
lfingers 7.12502
lthumb 6.08107 31.4106
rfemur -5.99286 -9.25211 12.7138
rtibia 31.1135
rfoot -19.25 12.1206
rtoes -14.8457
lfemur -0.590083 6.84518 -16.2311
ltibia 26.2555
lfoot -17.1279 -1.80034
ltoes -7.25978
65
root 0.704922 19.0309 2.50057 -182.017 3.07957 179.168
lowerback -18.4997 0.318518 -0.778741
upperback 6.61633 0.55861 1.0918
thorax 18.2344 0.0985147 1.92524
lowerneck 11.6278 -2.63879 2.58275
upperneck 23.3958 0.0154069 3.60338
head 5.23982 1.91559 0.850376
rclavicle 1.61513e-015 -9.54166e-015
rhumerus -1369.79 -4.99203 1416.51
rradius 23.0966
rwrist 32.5705
rhand -4.49615 1.49062
rfingers 7.12502
rthumb 21.2775 -27.3614
lclavicle 1.61513e-015 -9.54166e-015
lhumerus -1539.79 169.756 -1580.35
lradius 21.3572
lwrist -35.7163
lhand -20.2113 1.80809
lfingers 7.12502
lthumb 6.13578 31.6992
rfemur -5.48794 -9.19697 12.7337
rtibia 31.1358
rfoot -19.5469 12.24
rtoes -14.6819
lfemur -0.0917535 6.80642 -16.0861
ltibia 26.2732
lfoot -17.4317 -1.72514
ltoes -7.47839
66
root 0.715939 19.0119 2.41474 -182.161 3.13782 179.261
lowerback -19.2537 0.274934 -0.826433
upperback 6.43964 0.484154 1.16724
thorax 18.4985 0.0426499 2.02483
lowerneck 12.2662 -2.86897 2.46706
upperneck 23.9666 -0.0778156 3.77532
head 5.32854 1.96642 0.938897
rclavicle 9.06955e-015 1.98785e-014
rhumerus -1369.73 -6.64437 1417.52
rradius 22.8592
rwrist 32.5535
rhand -4.61479 1.03813
rfingers 7.12502
rthumb 21.1635 -27.8267
lclavicle 9.06955e-015 1.98785e-014
lhumerus -1539.42 167.886 -1580.59
lradius 21.3144
lwrist -36.6275
lhand -19.9482 1.92866
lfingers 7.12502
lthumb 6.38981 31.8123
rfemur -5.02824 -9.16369 12.7749
rtibia 31.1575
rfoot -19.8618 12.3792
rtoes -14.6737
lfemur 0.371333 6.72894 -15.9387
ltibia 26.309
lfoot -17.774 -1.58009
ltoes -7.86422
67
root 0.727497 18.9914 2.33335 -182.274 3.17269 179.33
lowerback -19.9536 0.206539 -0.904162
upperback 6.27324 0.38823 1.2382
thorax 18.7406 -0.0241285 2.12769
lowerneck 12.8254 -3.06465 2.40369
upperneck 24.5088 -0.126355 3.87063
head 5.42173 2.03325 0.994676
rclavicle -6.08778e-015 -6.36111e-015
rhumerus -1369.54 -8.4202 1417.6
rradius 22.5542
rwrist 32.9019
rhand -5.04466 0.467385
rfingers 7.12502
rthumb 20.7505 -28.4432
lclavicle -6.08778e-015 -6.36111e-015
lhumerus -1539.01 165.941 -1580.61
lradius 21.2756
lwrist -37.4543
lhand -19.2998 1.63488
lfingers 7.12502
lthumb 7.01577 31.4986
rfemur -4.6151 -9.13854 12.8077
rtibia 31.1894
rfoot -20.1937 12.4672
rtoes -14.783
lfemur 0.770522 6.65486 -15.8173
ltibia 26.3609
lfoot -18.0992 -1.4771
ltoes -7.95504
68
root 0.737922 18.9722 2.25489 -182.377 3.20796 179.378
lowerback -20.5923 0.15811 -0.950333
upperback 6.11826 0.320309 1.26889
thorax 18.9558 -0.0699025 2.1733
lowerneck 13.2372 -3.28032 2.43391
upperneck 25.085 -0.200346 3.90368
head 5.54988 2.09177 1.01616
rclavicle -8.36138e-015 -2.34566e-014
rhumerus -1369.27 -10.3279 1416.94
rradius 22.1783
rwrist 33.588
rhand -5.43695 0.0832257
rfingers 7.12502
rthumb 20.3735 -28.868
lclavicle -8.36138e-015 -2.34566e-014
lhumerus -1538.49 163.992 -1580.4
lradius 21.1831
lwrist -38.3753
lhand -18.8835 1.30172
lfingers 7.12502
lthumb 7.41756 31.1517
rfemur -4.23343 -9.10641 12.8155
rtibia 31.2283
rfoot -20.4757 12.5765
rtoes -14.6726
lfemur 1.13456 6.59669 -15.7283
ltibia 26.4269
lfoot -18.4159 -1.30676
ltoes -8.5753
